# xmcd
#
# Track frame offsets:
#	150
#	14317
#	27227
#	37045
#	46817
#	59182
#	70210
#	82340
#	92847
#	102245
#	112015
#	124232
#
# Disc length: 1785 seconds
#
# Revision: 3
# Processed by: cddbd v1.5.2PL0 Copyright (c) Steve Scherf et al.
# Submitted via: audiograbber 1.83.01
#
DISCID=ac06f70c
DTITLE=Cash, Johnny - Ragged old flag
DYEAR=1974
DGENRE=Country
TTITLE0=Ragged old flag
TTITLE1=Don't go near the water
TTITLE2=All I do is drive
TTITLE3=Southern Comfort
TTITLE4=King of the hill
TTITLE5=Pie in the sky
TTITLE6=Lonesome to the bone
TTITLE7=While I've got it on my mind
TTITLE8=Good morning friend
TTITLE9=I'm a worried man
TTITLE10=Please don't let me out
TTITLE11=What on earth will you do (for heaven's sake)
EXTD=
EXTT0=
EXTT1=
EXTT2=
EXTT3=
EXTT4=
EXTT5=
EXTT6=
EXTT7=
EXTT8=
EXTT9=
EXTT10=
EXTT11=
PLAYORDER=
